<?xml version="1.0" encoding="utf-8"?>
<!-- Generator: Adobe Illustrator 21.1.0, SVG Export Plug-In . SVG Version: 6.00 Build 0)  -->
<svg fill="#fff" version="1.1" id="Layer_1" xmlns="http://www.w3.org/2000/svg" xmlns:xlink="http://www.w3.org/1999/xlink" x="0px" y="0px"
	 width="410.2px" height="51.8px" viewBox="0 0 410.2 51.8" enable-background="new 0 0 410.2 51.8" xml:space="preserve">
<g id="Calque_1">
	<g>
		<path d="M38.9,31.5h11.4L50.1,32c-3,8.4-10.3,13-20.5,13C16.3,45,7.3,37.3,7.3,25.9c0-5.9,2.4-10.7,7.1-14.4
			c3.9-3,9.5-4.7,15.2-4.7c7.7,0,13.8,2.7,18.8,8.2l6.6-3.5C48.4,3.7,40.5,0,30.3,0C21.9,0,14.7,2.3,9.4,6.6C3.2,11.6,0,18.1,0,25.9
			c0,7.9,3.1,14.4,9.2,19.3c5.2,4.2,12.6,6.6,20.4,6.6c17.6,0,29.5-10.7,29.5-26.6v-0.4H38.9V31.5z"/>
		<path d="M111.4,33.5c0,7.5-6.6,11.7-18.5,11.7c-12,0-18.6-4.1-18.6-11.7V4.1h-6.8v31.3c0,9.7,10.2,16.2,25.3,16.2
			c15,0,25.2-6.5,25.2-16.2V4.1h-6.7L111.4,33.5L111.4,33.5z"/>
		<polygon points="169.2,43.9 135.5,43.9 135.5,29.5 161.9,29.5 161.9,23.3 135.5,23.3 135.5,10.7 169.2,10.7 169.2,4.4 128.6,4.4 
			128.6,50.1 169.2,50.1 		"/>
		<path d="M185.1,32.3H207l11.4,17.8h7.2L214.3,32l0.5-0.1c6.9-1.3,10.7-6.1,10.7-13.5c0-8.9-5.3-14.3-13.9-14.3h-33v46h6.2V32.3
			H185.1z M185.1,10.4h25c6.1,0,9.1,2.7,9.1,8.1c0,4.8-3.1,7.5-8.5,7.5H185L185.1,10.4L185.1,10.4z"/>
		<polygon points="241.4,4.1 234.7,4.1 234.7,50.1 275.9,50.1 275.9,43.9 241.4,43.9 		"/>
		<path d="M305,4.1l-22.2,46h6.9l4.9-10.5h29.3l5,10.5h6.9l-22.2-46H305z M297.7,33.4l11.5-23.9l11.5,23.9H297.7z"/>
		<rect x="343.1" y="4.1" width="6.4" height="46"/>
		<polygon points="403.5,4.1 403.5,43.1 368.9,4.1 360.2,4.1 360.2,50.1 366.9,50.1 366.9,11.1 401.6,50.1 410.2,50.1 410.2,4.1 		
			"/>
	</g>
</g>
</svg>
