<svg fill="#fff" xmlns="http://www.w3.org/2000/svg" width="410.2" height="51.8"><path d="M38.9 31.5h11.4l-.2.5c-3 8.4-10.3 13-20.5 13-13.3 0-22.3-7.7-22.3-19.1 0-5.9 2.4-10.7 7.1-14.4 3.9-3 9.5-4.7 15.2-4.7 7.7 0 13.8 2.7 18.8 8.2l6.6-3.5C48.4 3.7 40.5 0 30.3 0 21.9 0 14.7 2.3 9.4 6.6 3.2 11.6 0 18.1 0 25.9c0 7.9 3.1 14.4 9.2 19.3 5.2 4.2 12.6 6.6 20.4 6.6 17.6 0 29.5-10.7 29.5-26.6v-.4H38.9v6.7zm72.5 2c0 7.5-6.6 11.7-18.5 11.7-12 0-18.6-4.1-18.6-11.7V4.1h-6.8v31.3c0 9.7 10.2 16.2 25.3 16.2 15 0 25.2-6.5 25.2-16.2V4.1h-6.7l.1 29.4zm57.8 10.4h-33.7V29.5h26.4v-6.2h-26.4V10.7h33.7V4.4h-40.6v45.7h40.6zm15.9-11.6H207l11.4 17.8h7.2L214.3 32l.5-.1c6.9-1.3 10.7-6.1 10.7-13.5 0-8.9-5.3-14.3-13.9-14.3h-33v46h6.2V32.3h.3zm0-21.9h25c6.1 0 9.1 2.7 9.1 8.1 0 4.8-3.1 7.5-8.5 7.5H185l.1-15.6zm56.3-6.3h-6.7v46h41.2v-6.2h-34.5zm63.6 0l-22.2 46h6.9l4.9-10.5h29.3l5 10.5h6.9l-22.2-46H305zm-7.3 29.3l11.5-23.9 11.5 23.9h-23zm45.4-29.3h6.4v46h-6.4zm60.4 0v39l-34.6-39h-8.7v46h6.7v-39l34.7 39h8.6v-46z"/></svg>